<svg width="624" height="434" viewBox="0 0 624 434" fill="none" xmlns="http://www.w3.org/2000/svg">
<rect width="624" height="434" fill="#1E1E1E"/>
<rect x="21" y="21" width="588" height="393" rx="39" fill="#D9D9D9"/>
<g filter="url(#filter0_d_0_3)">
<path d="M32.7636 0.331537C36.8068 0.0312603 41.1595 -0.0512812 45.6689 0.0288024C53.6703 0.175984 62.1722 0.700406 69.1855 1.31298C72.5598 1.60368 70.8544 2.90278 73.1825 3.16064C77.7398 3.66201 81.9836 3.01402 86.4765 3.59423C87.9696 3.79275 86.1231 5.85904 87.6874 6.02001C96.248 6.88032 104.36 6.29212 112.858 6.52685C113.03 6.53155 113.201 6.53693 113.37 6.5415C125.736 7.04681 137.944 5.95202 151.549 5.68408C177.22 5.16544 202.292 4.88039 228.142 4.94286C232.763 4.96877 237.367 5.02331 242.082 5.14697C247.47 5.3001 253.711 5.70708 259.969 6.65478C264.665 7.48872 273.398 7.3053 280.268 7.11181C282.938 7.01267 285.579 6.85545 288.135 6.62158C289.868 6.46131 288.768 4.69486 289.094 4.53369C294.171 2.07012 292.586 5.77468 295.981 6.1372C309.443 7.56776 324.351 7.21596 337.272 6.16845C342.783 5.72232 337.161 2.27823 342.771 4.15283C343.158 4.27974 341.814 6.22981 343.32 6.39892C344.791 6.55877 346.784 6.56545 348.815 6.53466C351.662 6.48875 354.592 6.40957 356.182 6.51318C361.525 6.89451 362.427 6.88781 367.623 7.26415C372.281 7.5753 378.589 9.14002 382.627 10.0981C384.804 10.5417 387.075 10.8682 389.313 11.0132C390.762 11.0978 389.108 8.91046 391.439 8.86279C393.762 8.82362 399.916 9.64539 401.974 10.3022C404.024 10.9662 402.989 12.4173 403.327 12.8061C406.119 16.0831 413.766 12.5792 414.7 12.5474C418.79 12.4657 422.72 12.5817 426.572 12.8247C438.058 13.4616 449.821 14.617 462.281 14.8892C465.398 14.9474 468.573 14.9764 471.784 15.0122C481.336 15.1178 490.992 15.1658 499.764 15.6626C508.091 16.1354 515.649 16.9266 523.077 17.4087C528.019 17.7234 532.84 17.8229 537.902 17.4028C539.235 17.2918 537.511 15.1003 539.127 14.9546C545.307 14.3666 552.451 13.4332 559.54 13.103C572.991 12.6806 584.326 14.1282 596.242 15.939C598.116 16.2412 595.538 18.0785 597.388 18.5015C600.322 19.1641 603.699 20.033 607.199 20.8403C609.836 21.0212 612.425 23.4432 613.07 26.0063C613.41 29.9416 613.822 33.9239 614.559 37.6987C614.925 39.5868 615.371 41.4022 615.905 43.2231C616.171 44.1364 616.46 45.0259 616.755 46.0542C616.787 46.1678 616.815 46.2844 616.847 46.4018C616.928 46.5041 617.011 46.6074 617.09 46.7143C620.163 51.3193 619.257 53.6839 619.333 54.6606C619.283 55.1894 619.209 55.6202 619.133 55.9878C619.069 56.2874 619.017 56.4917 618.959 56.7046C618.514 58.2055 618.329 58.4468 618.142 58.8852C617.962 59.264 617.828 59.5172 617.684 59.7886C617.36 60.3855 617.073 60.8751 616.796 61.3374C617.305 62.3952 618.013 63.8491 618.653 65.8345C619.606 68.5777 619.823 72.8632 618.642 75.8804C618.477 76.0964 618.294 76.3964 618.109 76.7143C616.379 80.1217 614.719 76.1175 615.019 81.2231C615.103 82.4026 617.183 81.1252 617.174 82.8491C617.158 90.1918 616.18 98.5299 616.951 106.113C617.115 107.648 618.86 107.283 619.161 107.726C621.028 110.582 618.916 114.78 617.705 117.194C617.34 118.023 617.046 118.614 616.965 118.967C614.896 129.311 611.663 139.631 610.933 145.059C610.911 145.265 610.881 145.644 610.853 146.038C610.726 148.007 613.18 145.783 613.152 147.715C613.071 158.177 612.986 169.665 612.179 180.358C611.998 182.748 609.964 180.605 609.776 181.747C609.561 183.12 609.681 184.179 609.958 185.123C610.719 187.393 612.615 188.485 612.449 191.58C612.416 192.486 610.666 192.249 610.504 192.44C608.024 195.559 612.627 197.223 612.859 197.892C616.091 206.826 613.169 214.323 614.722 223.57C614.913 224.706 616.8 221.912 617.198 225.121C617.24 225.465 617.28 225.813 617.32 226.166C619.443 247.469 618.146 268.838 616.237 288.987C615.927 292.15 614.347 289.869 614.143 290.058C610.987 293.266 615.126 295.456 615.272 296.467C615.43 297.727 615.482 298.963 615.475 300.151C615.439 307.014 613.438 313.13 617.383 318.22C616.857 323.818 615.988 330.19 614.802 335.619C612.325 347.945 610.159 360.258 609.375 371.969C609.288 373.406 609.183 374.89 609.146 375.958C609.109 376.938 609.167 377.706 609.312 379.148C609.599 381.886 609.909 384.872 610.143 387.748C610.335 392.402 609.165 393.683 608.511 395.379C607.754 396.94 606.978 398.196 606.188 399.397C604.603 401.783 602.961 403.861 601.267 405.865C597.868 409.858 594.329 413.441 590.479 416.913C589.735 417.788 587.62 418.745 586.475 418.837C585.707 418.785 584.937 418.729 584.12 418.671C583.655 418.645 584.318 416.553 583.485 416.503C572.936 415.91 575.103 418.987 568.368 423.239C566.666 424.306 561.098 419.87 560.617 419.544C558.847 418.357 560.469 415.22 559.885 415.001C555.038 413.301 556.306 423.352 549.881 423.657C549.679 423.649 550.436 421.753 549.889 421.593C548.182 421.092 546.564 421.906 544.894 421.34C541.08 420.028 539.534 415.188 533.934 418.279C533.223 418.678 534.573 424.362 528.811 424.316C526.526 424.3 516.341 424.743 513.452 424.418C510.565 424.108 512.506 422.221 512.304 422.146C510.505 421.616 509.237 421.141 508.419 420.685C505.566 419.174 506.589 417.927 503.642 415.167C499.832 411.585 500.911 420.165 499.347 421.128C497.783 422.09 492.187 420.067 490.82 419.359C489.446 418.653 491.165 417.487 489.947 417.085C481.87 414.46 486.384 421.331 483.714 422.683C477.422 425.883 472.568 419.503 466.825 418.875C465.265 418.706 466.542 420.157 465.136 420.292C459.689 420.81 456.373 418.827 450.135 420.662C449.054 420.96 444.165 424.78 440.809 422.027C440.801 422.019 440.791 422.011 440.782 422.003C440.329 421.599 441.617 420.008 439.316 419.661C435.751 419.139 429.557 418.817 425.759 419.364C423.003 419.768 426.194 422.37 422.684 421.573C421.115 421.217 424.001 419.674 421.075 419.133C418.219 418.592 410.716 418.695 407.953 418.761C405.13 418.829 406.681 420.804 406.456 420.94C405.054 421.712 399.699 422.695 399.194 422.696C375.117 423.059 352.883 419.836 329.437 421.054C327.592 421.147 328.831 423.233 328.55 423.269C322.249 424.175 327.192 418.59 322.787 416.749C323.446 420.99 320.826 420.234 316.404 420.719C314.258 420.956 315.433 422.594 315.239 422.764C312.069 425.275 309.868 422.059 309.284 421.402C307.159 418.985 304.912 421.861 303.465 420.245C302.024 418.641 305.311 416.241 301.044 416.289C299.858 417.813 303.029 421.771 299.806 422.427C287.596 424.912 264.869 421.861 255.033 421.534C254.879 421.529 254.726 421.523 254.576 421.518C245.092 421.218 241.982 421.471 236.36 420.913C226.112 419.876 229.814 422.838 223.411 424.144C216.97 425.441 220.166 418.216 219.258 416.651C218.384 415.086 217.342 416.679 216.255 415.812C215.134 414.945 217.595 413.91 214.935 413.562C212.306 413.216 205.064 415.896 204.11 417.512C202.076 420.938 205.294 424.604 198.321 423.238C197.923 423.156 199.247 421.268 197.716 421.055C187.308 419.658 176.587 419.322 166.039 418.47C164.282 418.323 162.444 418.16 160.675 417.973C158.977 417.794 160.494 415.672 159.501 415.543C149.355 414.21 152.978 417.779 147.421 421.769C148.65 416.48 145.563 413.255 137.832 413.258C133.199 413.259 133.98 415.564 131.006 417.205C130.108 417.699 126.814 416.131 126.225 417.218C124.279 420.776 127.39 424.734 119.421 423.191C119.073 423.117 120.172 421.17 118.968 421.058C111.164 420.325 110.244 424.042 101.81 424.527C95.1969 424.908 83.4239 422.683 75.8925 422.32C76.0295 416.379 68.9575 417.744 66.0429 421.835C61.1512 421.662 55.8651 421.877 51.1366 421.279C49.5258 421.075 50.5956 419.363 50.3944 419.174C47.2559 416.236 45.101 420.198 44.0478 420.343C42.7822 420.501 41.4447 420.598 40.2431 420.652C37.2481 420.774 34.422 420.636 31.622 420.412C31.2317 420.909 30.8244 421.358 30.4101 421.744C28.937 423.168 27.3122 424.02 26.4667 424.39C22.674 425.878 21.8854 425.539 20.62 425.683C19.5553 425.713 18.7762 425.665 17.9696 425.603L22.08 424.912C22.1389 424.89 22.1959 424.869 22.2509 424.848C22.3041 424.828 22.3005 424.828 22.3251 424.818C22.3639 424.801 22.4029 424.784 22.4423 424.767C22.5093 424.737 22.5516 424.715 22.6103 424.687C22.7219 424.632 22.8084 424.585 22.9218 424.524C23.1289 424.41 23.3763 424.269 23.7245 424.042C24.0737 423.809 24.5207 423.515 25.2255 422.877C25.7724 422.329 26.5784 421.667 27.4892 420.036C27.3549 420.023 27.2203 420.011 27.0858 419.998C24.9358 419.783 22.7913 419.581 20.5126 419.355C19.3306 419.219 18.2428 419.16 16.6132 418.763C16.2084 418.652 15.7657 418.538 15.08 418.185C14.8998 418.088 14.7546 418.008 14.5233 417.848C14.2883 417.684 14.0422 417.486 13.7939 417.233C13.4883 416.915 13.169 416.512 12.8993 415.94C12.5956 415.288 12.4211 414.515 12.4745 413.684C12.618 412.017 13.3483 411.18 13.7665 410.676C14.0973 410.307 14.3756 410.065 14.62 409.873C14.5648 410.026 14.5144 410.185 14.4696 410.348C14.1284 411.591 14.2147 412.675 14.3827 413.408C14.7534 414.834 15.1615 415.076 15.3847 415.14C15.6147 415.162 15.7605 414.903 15.8896 414.48C15.9077 414.421 16.1154 414.42 16.3417 414.37C16.57 414.32 16.7986 414.198 16.998 414.035C17.3146 413.654 18.3099 413.894 16.4999 411.842C16.011 411.274 15.4321 410.568 14.8388 409.705C14.8441 409.701 14.8501 409.697 14.8554 409.693C15.4814 409.248 15.7929 409.045 16.4745 408.731C16.7741 408.619 17.6499 408.487 17.9696 408.479C18.5837 408.337 19.1332 408.143 19.3827 407.916C19.4083 407.884 19.4058 407.602 19.3251 407.257C19.2091 406.93 19.1546 406.448 18.3866 406.39C18.0638 406.373 17.3116 406.426 16.1181 407.524C15.6199 408.008 15.1052 408.698 14.7411 409.564C14.1344 408.665 13.5175 407.6 12.9726 406.345C11.8262 403.867 11.4057 400.068 12.6972 397.098C13.8816 394.277 14.4683 391.143 13.9872 388.414C13.747 386.665 10.5762 383.004 12.8495 379.714C13.1621 379.255 14.3879 379.613 14.9774 378.912C16.7225 376.668 12.97 376.163 15.1239 373.483C12.1916 373.536 9.62727 372.778 8.37589 372.085C6.01143 370.896 5.18722 369.955 4.48136 369.214C3.71575 368.323 4.04102 367.905 4.25577 367.467C4.49996 367.049 4.72345 366.655 4.45304 366.29C4.16305 365.893 3.94661 365.569 4.11124 365.698C4.15947 365.736 4.24587 365.82 4.46182 366.022C4.66738 366.187 4.97478 366.592 6.35929 367.493C6.75603 367.738 7.63298 368.274 8.93643 368.703C9.60306 368.92 10.4236 369.128 11.4403 369.23C12.4687 369.312 13.572 369.384 15.4794 368.929C16.3619 368.734 17.2053 368.4 17.9911 367.978C18.4411 365.443 18.0618 362.463 16.3847 359.455C16.0332 358.816 15.622 358.162 15.2196 357.633C15.1911 357.589 14.9854 357.535 14.6962 357.492C14.8381 356.978 14.9431 356.332 15.0253 355.7C15.4379 352.526 15.8423 348.815 15.5907 345.91C15.4291 344.12 13.4816 345.451 13.4169 345.146C11.7694 336.621 9.7181 329.612 9.4003 320.852C9.26193 317.991 9.26115 315.004 9.37979 311.761C9.40963 309.449 6.85044 302.221 9.73819 297.821C12.9405 293.153 21.8075 299.752 21.7011 288.742C21.7283 286.804 19.7886 284.096 18.1913 280.957C16.0658 276.426 13.7008 272.787 17.5566 267.898C17.2935 265.023 17.0886 262.219 16.9452 259.439C15.9734 247.852 16.733 236.954 16.1103 225.43C16.0088 223.691 15.8938 221.934 15.7499 220.151C15.6859 219.432 12.3006 216.821 12.5302 215.055C12.8743 212.453 14.7141 211.249 15.0702 209.444C16.4995 201.94 17.1028 194.548 17.6942 187.644C17.6931 187.53 17.6932 187.429 17.6952 187.34C17.6521 185.043 19.2958 185.528 18.8954 182.338C18.4603 179.004 15.8354 177.14 16.2939 172.466C16.6545 168.911 20.8604 165.022 21.0155 160.571C16.4468 160.792 16.2268 157.705 14.7587 152.202C14.4765 151.147 12.9349 152.361 12.7196 151.863C11.8089 149.807 13.0724 147.852 12.1454 145.893C11.9222 145.418 10.3588 145.416 10.0898 145.021C9.49748 144.162 9.27879 143.192 9.29874 142.152C9.35181 139.069 11.5582 135.833 12.0478 135.153C14.533 131.639 12.6301 129.848 13.7685 127.144C14.9197 124.476 15.7004 128.668 16.538 125.53C17.4274 122.224 18.0944 118.429 18.6503 114.58C19.1784 110.921 19.6699 107.119 19.9052 103.731C20.0853 100.983 17.8904 102.749 17.8681 102.352C17.7422 99.3628 18.2802 96.3711 18.1767 93.7436C18.0853 91.4777 17.5071 89.4746 15.5546 88.0718C26.2438 84.0425 14.4743 84.7315 16.4306 76.7427C16.591 76.1128 21.6504 75.1774 22.4589 77.5747C23.2655 79.9761 21.7624 83.6771 22.9755 87.0259C23.2656 87.8029 28.0708 92.3725 28.3564 93.0366C28.4692 93.2883 28.5576 93.5271 28.623 93.7524C29.8581 98.1896 22.9312 98.7364 22.5341 98.9614C18.0086 101.752 22.6725 107.748 22.7997 109.378C23.035 111.457 23.03 113.328 22.9569 115.098C22.7574 119.473 22.0171 123.301 22.5028 127.189C22.9549 130.78 27.9063 131.446 27.6044 134.09C27.2436 137.399 26.1046 139.857 25.1259 142.149C23.5084 146.04 22.2679 149.463 26.329 154.582C27.7395 156.333 32.9797 154.126 29.2587 160.892C29.014 161.296 25.6096 166.558 28.4462 169.064C28.8018 169.374 30.3695 169.151 30.5634 169.593C31.8303 172.553 30.8906 174.756 32.0468 178.15C32.7226 180.226 33.5851 182.164 34.1776 185.815C34.6144 191.079 34.0612 192.577 33.5946 194.689C32.818 197.537 29.3318 200.025 28.4169 201.05C25.773 203.927 28.5918 207.804 25.8202 209.348C23.0322 210.961 19.7579 206.469 17.4169 211.571C21.4777 212.287 25.6187 213.248 29.6962 214.036C29.1668 217.986 28.66 221.834 28.3495 225.655C27.8058 232.768 27.4849 239.884 28.0448 247.145C28.1604 248.577 30.2783 246.976 30.4618 248.498C30.8524 251.885 30.8005 254.711 30.7255 258.916C30.585 262.171 30.4642 265.506 30.704 269.345C30.9127 273.432 31.9638 277.831 31.4794 284.098C31.373 286.56 31.3225 288.345 31.1083 290.124C25.7521 292.067 25.8679 299.613 25.1474 304.565C24.8778 306.325 23.6354 306.143 23.1737 307.408C21.5674 312.237 25.7932 309.962 26.4491 311.214C28.3886 314.629 25.1096 316.123 22.9472 318.937C21.8383 320.423 21.0507 322.224 21.6317 324.598C21.6959 324.978 27.6719 328.387 28.1786 329.078C31.2815 333.185 26.6642 330.198 27.0067 333.269C27.6339 339.144 27.1355 343.82 28.6493 350.815C28.9062 352 30.0286 354.188 30.3554 356.549C30.3957 357.599 30.4825 358.56 30.08 360.387C30.7173 360.789 31.3226 361.279 31.8505 361.942C34.7639 365.527 32.6399 373.528 31.7206 375.072C29.5484 379.188 30.1995 372.359 29.8456 372.24C26.3295 370.553 27.8514 375.235 27.8671 379.135C22.8735 380.126 23.2822 385.048 27.8026 383.171C28.3154 382.932 27.7185 379.913 27.8671 379.135C33.1844 381.932 33.9444 389.658 27.7694 395.537C25.2718 397.772 23.7705 395.547 22.1913 400.436C22.1496 400.558 22.2131 400.623 22.3485 400.611C22.8396 400.801 26.057 399.35 26.9608 398.976C27.6558 399.015 28.2453 399.389 30.1874 401.497C30.3935 401.749 30.6078 401.976 30.8739 402.292C34.04 402.437 37.1388 403.208 40.497 403.041C41.0111 403.014 41.5394 402.966 42.0839 402.889C42.5212 402.825 41.4784 400.793 42.9814 400.786C54.2518 400.68 64.1782 401.982 76.0732 402.01C81.8273 402.023 92.0967 400.88 98.0653 401.08C108.396 401.417 121.139 404.288 129.978 403.533C135.733 403.049 134.476 401.035 136.929 399.648C141.686 396.959 150.163 401.703 151.308 402.441C151.34 402.466 146.363 402.96 149.024 403.986C150.589 406.14 151.25 402.45 151.308 402.441C152.055 402.914 161.999 403.349 163.975 402.965C165.052 402.754 164.449 400.842 165.007 400.767C165.355 400.722 165.701 400.678 166.044 400.634C179.041 399.022 192.149 398.736 205.165 399.79C205.399 399.832 205.017 401.967 205.57 402.039C213.329 403.09 218.26 400.52 224.687 399.012C231.03 397.503 236.12 398.042 239.877 401.726C244.298 401.315 250.454 402.649 254.573 403.631C254.937 403.721 255.286 403.809 255.616 403.891C259.594 404.875 260.174 400.707 260.51 400.625C271.442 397.975 277.806 400.342 289.157 400.676C294.569 400.842 305.285 400.195 311.147 399.714C315.764 399.328 318.555 400.292 322.827 399.648C323.406 399.562 322.813 397.709 322.989 397.637C327.725 395.397 325.468 399.941 326.452 400.747C330.036 403.675 332.236 405.233 338.327 403.818C339.731 403.493 343.796 396.944 346.355 396.549C349.684 396.048 348.439 398.394 351.926 397.81C352.224 397.762 352.156 396.319 354.308 396.372C364.294 396.597 375.219 397.38 385.599 397.182C387.011 397.161 385.188 394.88 387.228 394.811C396.867 394.49 407.408 394.522 416.786 395.55C419.119 395.81 417.666 397.42 418.172 397.894C421.233 400.76 425.627 396.557 426.309 396.473C431.423 395.856 436.159 395.75 440.724 395.861C451.67 396.126 461.828 397.603 474.227 396.36C475.188 396.254 482.554 391.792 485.811 395.657C486.049 395.916 489.255 399.866 492.098 397.184C492.27 397.014 490.292 394.984 493.763 395.2C497.236 395.416 502.758 394.053 507.559 396.24C507.747 396.325 507.969 396.458 508.225 396.621C509.811 397.785 513.05 400.413 516.898 397.554C517.166 397.325 523.834 390.039 526.494 394.816C526.923 395.603 526.706 400.79 532 397.926C533.007 397.371 531.088 396.295 533.776 395.464C537.893 394.184 543.482 395.323 548.512 392.784C549.393 392.334 553.018 388.654 556.215 391.164C556.713 391.557 555.881 393.325 557.512 393.439C565.229 393.99 573.262 392.424 581.099 393.202C581.144 393.206 581.188 393.212 581.231 393.218C580.817 391.028 576.816 390.361 578.53 387.5C578.824 386.994 579.111 386.492 579.381 386.015C579.278 384.977 579.173 383.9 579.067 382.739C578.994 381.903 578.908 380.969 578.834 379.638C578.757 378.331 578.745 376.641 578.805 375.424C578.926 372.992 579.101 371.767 579.251 370.304C580.428 359.083 582.781 349.384 584.648 339.712C585.231 336.766 583.226 338.922 583.981 334.587C584.231 333.16 584.487 331.646 584.749 330.074C586.319 322.221 586.012 311.293 586.553 299.916C586.874 292.661 587.575 286.173 588.824 281.387C591.68 270.437 593.557 284.291 594.768 275.905C595.345 271.858 590.216 267.449 590.058 266.483C588.465 257.015 590.749 250.467 589.846 242.198C589.653 240.503 587.606 242.224 587.464 240.786C587.036 236.7 587.452 232.4 587.236 228.806C587.19 228.067 587.127 227.384 587.03 226.685C586.747 224.733 585.194 225.259 585.108 223.48C584.864 219.199 584.943 215.561 585.543 210.993C585.597 210.568 588.09 212.834 587.488 209.528C586.562 204.345 585.828 195.654 584.017 186.95C583.924 186.532 583.749 186.18 583.531 185.857C582.444 184.571 580.225 183.964 582.25 180.242C582.761 179.313 587.164 180.397 583.283 175.35C582.63 174.519 577.413 165.881 580.739 161.595C581.611 160.46 585.218 157.618 584.692 155.113C584.605 154.772 582.621 156.11 582.464 154.017C582.254 150.282 582.096 147.585 582.469 142.002C583.133 135.139 584.89 130.486 585.087 128.049C585.237 126.728 582.823 128.087 583.061 126.251C583.359 123.64 583.733 120.537 583.982 116.683C584.199 112.651 584.547 108.679 584.935 105.137C585.264 102.195 586.885 104.287 587.074 104.076C590.16 100.748 586.227 98.5563 586.041 97.3833C584.968 90.0872 587.126 84.812 587.457 77.3638C587.58 75.2506 585.496 76.4999 585.378 76.0561C584.473 71.6648 586.702 74.4425 587.807 72.8599C586.729 70.6313 585.542 67.548 585.044 63.5464C584.782 61.5934 584.79 59.6202 584.985 57.7202C584.892 57.2234 584.816 56.7591 584.748 56.3306C584.447 54.136 584.55 52.0888 584.625 51.2397C584.706 50.2433 584.848 49.3442 584.959 48.7554C585.058 48.2234 585.162 47.7596 585.265 47.3433C585.292 47.2398 585.32 47.1396 585.347 47.0425C580.422 48.303 578.594 46.7183 574.367 46.8286C569.984 46.966 565.056 47.0594 561.68 47.3706C551.506 48.229 535.585 50.2873 522.256 49.2778C515.681 48.9344 509.662 48.456 504.097 48.0356C491.946 47.1083 481.181 46.0464 470.763 45.2632C457.95 44.2548 445.537 44.0829 430.138 43.7612C428.35 43.7059 430.058 46.0653 428.49 46.0415C427.074 46.0097 425.635 45.9565 424.162 45.8745C408.795 44.9821 394.308 43.5125 377.377 41.1665C374.553 40.7149 372.947 40.4041 371.465 40.23C370.358 40.0975 371.551 42.4763 369.838 42.3608C366.473 42.1599 361.39 41.7484 356.913 41.0093C354.727 40.6525 357.699 38.8289 355.479 38.5122C353.528 38.2385 351.479 38.0684 349.381 37.9956C345.781 37.8769 342.038 37.9895 338.406 38.3032C335.933 38.5227 339.725 40.6289 336.511 40.7427C318.217 41.4419 300.067 42.4107 281.51 41.5259C277.748 41.3471 273.992 41.0957 270.113 40.7349C268.464 40.5797 267.142 36.1611 263.317 37.0435C263.023 38.2888 263.018 39.7545 262.874 41.0854C261.127 41.1246 258.414 41.0024 256.891 40.8716C248.549 40.2237 238.581 40.3531 228.687 40.3257C208.429 40.3856 187.798 40.3797 167.266 41.1255C165.917 41.177 168.343 43.4471 165.752 43.5591C161.697 43.7368 157.687 43.9765 153.787 44.2212C143.277 44.774 132.465 46.091 119.775 44.7778C118.144 44.6046 118.805 40.5099 114.265 41.144C114.21 41.1518 114.153 41.1602 114.097 41.1694C113.245 41.3155 106.231 42.0093 104.441 42.936C104.197 43.0767 105.503 45.0116 103.249 45.0991C90.1467 45.563 76.5578 45.1392 63.6083 43.9282C61.517 43.7283 63.7496 41.6524 62.2577 41.4917C56.7902 40.9086 51.0527 41.0378 45.4208 41.0171C40.3251 40.9987 35.3588 40.9259 30.7392 40.146C24.3464 39.0901 26.5742 35.4195 22.9482 32.0698C22.4282 31.5875 18.4761 31.821 18.0692 29.8061C17.0109 24.7039 18.5446 18.8672 17.1933 13.4487C17.0814 12.8596 15.3661 13.0509 14.6376 12.9311C14.4666 12.8996 14.3978 12.843 14.4628 12.7534C14.5153 12.6636 14.7323 12.5462 14.787 12.396C14.9857 12.0819 13.953 11.67 14.5058 10.9126C14.3697 10.7285 18.8957 9.33805 19.8925 8.31298C20.6265 7.58636 19.0802 5.59206 20.6024 4.62451C22.1612 3.66021 23.9353 5.31817 26.4472 4.20458C28.9385 3.09127 27.7533 0.725814 32.7636 0.331537ZM66.0575 421.838C69.3059 421.998 72.5279 422.021 75.7733 422.162C72.532 424.505 68.6568 424.781 66.0575 421.838ZM278.862 417.151C280.461 414.821 274.488 414.65 275.754 417.066C275.821 417.163 278.779 417.247 278.862 417.151ZM468.831 414.891C468.663 412.903 465.713 413.462 466.673 415.298C466.729 415.407 468.863 415.508 468.831 414.891ZM597.296 405.374C596.513 400.261 587.529 410.873 592.485 411.048C592.772 411.074 597.331 405.701 597.296 405.374ZM14.8388 409.705C14.7691 409.757 14.6965 409.812 14.621 409.872C14.6588 409.767 14.6991 409.664 14.7411 409.564C14.7732 409.611 14.8068 409.658 14.8388 409.705ZM273.597 408.27C277.312 410.261 277.825 402.933 273.835 404.695C273.64 404.789 273.404 408.17 273.597 408.27ZM22.1503 403.521C21.5489 403.361 21.6218 403.479 21.7314 403.555C21.8671 403.645 22.1462 403.752 22.4257 403.845C22.7592 403.951 23.1288 404.045 23.5204 404.129C22.7669 403.686 22.4298 403.626 22.1503 403.521ZM574.081 402.24C574.102 402.256 574.172 402.215 574.242 402.169C574.256 402.161 574.269 402.151 574.283 402.142L574.081 402.24ZM580.857 383.121C580.808 383.23 580.733 383.394 580.621 383.716C580.642 383.673 580.664 383.631 580.684 383.59C580.9 383.149 581.019 382.801 580.857 383.121ZM12.3026 358.446C12.7696 358.441 13.3025 358.528 13.7802 358.557C13.574 358.782 13.2117 358.993 12.8808 359.033C12.5395 359.074 12.3873 359.02 12.2333 358.972C11.9508 358.866 11.869 358.755 11.8505 358.717C11.8207 358.666 11.8146 358.627 11.8192 358.598C11.8324 358.543 11.8792 358.516 11.9306 358.496C12.0353 358.457 12.1703 358.452 12.3026 358.446ZM14.6962 357.492C14.636 357.709 14.5705 357.905 14.495 358.064C14.4042 358.259 14.3682 358.323 14.4403 358.38C14.5175 358.472 14.2825 358.578 14.0224 358.567C13.9437 358.566 13.8627 358.562 13.7802 358.557C13.7911 358.545 13.8034 358.534 13.8134 358.522C13.917 358.404 13.9881 358.291 14.039 358.194C14.0782 358.121 14.0953 358.089 14.1171 358.042C14.1574 357.957 14.1844 357.887 14.206 357.83C14.2859 357.591 14.3137 357.574 14.3603 357.535C14.4454 357.468 14.5325 357.479 14.6142 357.479C14.6422 357.483 14.6695 357.488 14.6962 357.492ZM24.0253 355.416C24.013 355.418 24.0294 355.506 24.0546 355.597C24.0841 355.704 24.122 355.814 24.1669 355.926C24.1585 355.884 24.1521 355.844 24.1444 355.809C24.1168 355.683 24.0945 355.597 24.0771 355.538C24.048 355.446 24.0321 355.419 24.0253 355.416ZM26.0087 240.207C28.3791 236.874 22.8212 234.318 21.8642 235.747C18.7334 240.569 23.6538 243.596 26.0087 240.207ZM29.7011 185.296C29.5267 184.849 24.0351 185.018 23.9306 185.41C23.8039 185.896 23.7382 186.357 23.7196 186.783C23.5254 190.232 24.9568 191.331 26.7665 191.752C27.6493 191.893 28.5653 191.749 29.2431 191.03C29.8849 190.256 30.4536 189.358 29.9882 186.203C29.9154 185.909 29.8178 185.59 29.7011 185.296ZM19.2128 141.237C20.6063 139.55 19.1641 134.581 17.3417 136.651C15.8536 138.355 17.4532 143.382 19.2128 141.237ZM589.883 76.6753C589.979 76.9237 590.075 77.1248 590.166 77.2661C590.719 78.2971 590.62 77.9685 589.883 76.6753ZM13.7646 45.4683C14.258 44.3937 19.5925 51.3277 19.5898 52.0679C19.5856 52.0607 19.5812 52.0525 19.5771 52.0454C19.6052 64.5648 11.2537 72.3912 11.7899 58.7739C11.8854 56.3078 14.697 63.9895 15.3691 60.8315C16.5919 55.0499 11.0767 51.4207 13.7646 45.4683ZM616.032 59.3169C615.983 59.366 616.064 59.6939 616.285 60.2153C616.328 60.3223 616.378 60.4359 616.433 60.5571C616.42 60.3657 616.395 60.1757 616.355 60.0063C616.251 59.5269 616.077 59.2628 616.032 59.3169ZM588.166 45.8276C587.591 46.0535 587.067 46.2957 586.627 46.5044C586.607 46.8495 586.605 47.0749 586.601 47.2378C586.599 47.7815 586.612 47.7938 586.604 47.7456C586.593 47.613 586.542 47.1258 586.473 46.5776C586.269 46.6745 586.085 46.76 585.927 46.8315C585.884 46.9652 585.834 47.1221 585.776 47.3159C585.696 47.5903 585.611 47.8987 585.525 48.2505C585.482 48.4264 585.439 48.6143 585.395 48.814C585.349 49.0263 585.279 49.3724 585.224 49.6929C585.055 51.08 584.599 52.3646 585.103 56.7417C585.613 53.0401 586.799 49.6845 588.017 47.3882C588.153 47.1195 588.277 46.8754 588.388 46.6538C588.526 46.2485 588.398 46.0028 588.166 45.8276ZM616.933 46.7241C617.017 47.0554 617.1 47.4129 617.171 47.8198C617.227 48.2003 617.283 48.5754 617.281 49.1665C617.277 49.4757 617.258 49.8163 617.201 50.2153C617.113 50.7304 616.974 51.3533 616.611 52.1645C616.59 53.1404 616.697 54.0667 616.981 54.8745C617.129 55.2658 617.316 55.6398 617.578 55.9136C617.851 56.1399 618.169 56.4555 618.76 55.855C618.789 55.7386 618.832 55.5592 618.874 55.3511C618.91 55.1668 618.977 54.8221 619.025 54.356C619.062 53.9736 619.144 53.1135 619 51.9243C618.924 51.2714 618.708 50.1668 618.256 49.0776C618 48.4126 617.535 47.5549 616.933 46.7241ZM610.521 42.4497C610.799 42.5142 611.228 42.6314 611.859 42.8501C611.931 42.8746 612.008 42.9016 612.089 42.9321C611.41 42.6528 610.87 42.5181 610.521 42.4497ZM39.0966 30.5972C39.0282 30.4983 36.0886 30.43 36.0292 30.5288C34.5002 32.8702 40.3517 33.0042 39.0966 30.5972Z" fill="#A7914C"/>
</g>
<defs>
<filter id="filter0_d_0_3" x="0" y="0" width="623.901" height="433.692" filterUnits="userSpaceOnUse" color-interpolation-filters="sRGB">
<feFlood flood-opacity="0" result="BackgroundImageFix"/>
<feColorMatrix in="SourceAlpha" type="matrix" values="0 0 0 0 0 0 0 0 0 0 0 0 0 0 0 0 0 0 127 0" result="hardAlpha"/>
<feOffset dy="4"/>
<feGaussianBlur stdDeviation="2"/>
<feComposite in2="hardAlpha" operator="out"/>
<feColorMatrix type="matrix" values="0 0 0 0 0 0 0 0 0 0 0 0 0 0 0 0 0 0 0.25 0"/>
<feBlend mode="normal" in2="BackgroundImageFix" result="effect1_dropShadow_0_3"/>
<feBlend mode="normal" in="SourceGraphic" in2="effect1_dropShadow_0_3" result="shape"/>
</filter>
</defs>
</svg>
